<?xml version="1.0" encoding="UTF-8" standalone="no"?>
<svg
   version="1.2"
   width="209.8mm"
   height="242.82mm"
   viewBox="0 0 20980 24282"
   preserveAspectRatio="xMidYMid"
   fill-rule="evenodd"
   stroke-width="28.222"
   stroke-linejoin="round"
   xml:space="preserve"
   id="svg51"
   sodipodi:docname="lib-logo.svg"
   inkscape:version="1.4 (e7c3feb100, 2024-10-09)"
   xmlns:inkscape="http://www.inkscape.org/namespaces/inkscape"
   xmlns:sodipodi="http://sodipodi.sourceforge.net/DTD/sodipodi-0.dtd"
   xmlns="http://www.w3.org/2000/svg"
   xmlns:svg="http://www.w3.org/2000/svg"
   xmlns:ooo="http://xml.openoffice.org/svg/export"><sodipodi:namedview
   id="namedview51"
   pagecolor="#ffffff"
   bordercolor="#000000"
   borderopacity="0.25"
   inkscape:showpageshadow="2"
   inkscape:pageopacity="0.0"
   inkscape:pagecheckerboard="0"
   inkscape:deskcolor="#d1d1d1"
   inkscape:document-units="mm"
   showgrid="false"
   inkscape:zoom="1.3830168"
   inkscape:cx="463.118"
   inkscape:cy="544.82344"
   inkscape:window-width="3834"
   inkscape:window-height="2112"
   inkscape:window-x="0"
   inkscape:window-y="42"
   inkscape:window-maximized="1"
   inkscape:current-layer="id3" />
 <defs
   class="ClipPathGroup"
   id="defs2">
  <clipPath
   id="presentation_clip_path"
   clipPathUnits="userSpaceOnUse">
   <rect
   x="0"
   y="0"
   width="20980"
   height="24282"
   id="rect1" />
  </clipPath>
  <clipPath
   id="presentation_clip_path_shrink"
   clipPathUnits="userSpaceOnUse">
   <rect
   x="20"
   y="24"
   width="20939"
   height="24234"
   id="rect2" />
  </clipPath>
 </defs>
 <defs
   class="TextShapeIndex"
   id="defs3">
  <g
   ooo:slide="id1"
   ooo:id-list="id3 id4 id5 id6"
   id="g2" />
 </defs>
 <defs
   class="EmbeddedBulletChars"
   id="defs12">
  <g
   id="bullet-char-template-57356"
   transform="scale(0.00048828125,-0.00048828125)">
   <path
   d="M 580,1141 L 1163,571 580,0 -4,571 580,1141 Z"
   id="path3" />
  </g>
  <g
   id="bullet-char-template-57354"
   transform="scale(0.00048828125,-0.00048828125)">
   <path
   d="M 8,1128 L 1137,1128 1137,0 8,0 8,1128 Z"
   id="path4" />
  </g>
  <g
   id="bullet-char-template-10146"
   transform="scale(0.00048828125,-0.00048828125)">
   <path
   d="M 174,0 L 602,739 174,1481 1456,739 174,0 Z M 1358,739 L 309,1346 659,739 1358,739 Z"
   id="path5" />
  </g>
  <g
   id="bullet-char-template-10132"
   transform="scale(0.00048828125,-0.00048828125)">
   <path
   d="M 2015,739 L 1276,0 717,0 1260,543 174,543 174,936 1260,936 717,1481 1274,1481 2015,739 Z"
   id="path6" />
  </g>
  <g
   id="bullet-char-template-10007"
   transform="scale(0.00048828125,-0.00048828125)">
   <path
   d="M 0,-2 C -7,14 -16,27 -25,37 L 356,567 C 262,823 215,952 215,954 215,979 228,992 255,992 264,992 276,990 289,987 310,991 331,999 354,1012 L 381,999 492,748 772,1049 836,1024 860,1049 C 881,1039 901,1025 922,1006 886,937 835,863 770,784 769,783 710,716 594,584 L 774,223 C 774,196 753,168 711,139 L 727,119 C 717,90 699,76 672,76 641,76 570,178 457,381 L 164,-76 C 142,-110 111,-127 72,-127 30,-127 9,-110 8,-76 1,-67 -2,-52 -2,-32 -2,-23 -1,-13 0,-2 Z"
   id="path7" />
  </g>
  <g
   id="bullet-char-template-10004"
   transform="scale(0.00048828125,-0.00048828125)">
   <path
   d="M 285,-33 C 182,-33 111,30 74,156 52,228 41,333 41,471 41,549 55,616 82,672 116,743 169,778 240,778 293,778 328,747 346,684 L 369,508 C 377,444 397,411 428,410 L 1163,1116 C 1174,1127 1196,1133 1229,1133 1271,1133 1292,1118 1292,1087 L 1292,965 C 1292,929 1282,901 1262,881 L 442,47 C 390,-6 338,-33 285,-33 Z"
   id="path8" />
  </g>
  <g
   id="bullet-char-template-9679"
   transform="scale(0.00048828125,-0.00048828125)">
   <path
   d="M 813,0 C 632,0 489,54 383,161 276,268 223,411 223,592 223,773 276,916 383,1023 489,1130 632,1184 813,1184 992,1184 1136,1130 1245,1023 1353,916 1407,772 1407,592 1407,412 1353,268 1245,161 1136,54 992,0 813,0 Z"
   id="path9" />
  </g>
  <g
   id="bullet-char-template-8226"
   transform="scale(0.00048828125,-0.00048828125)">
   <path
   d="M 346,457 C 273,457 209,483 155,535 101,586 74,649 74,723 74,796 101,859 155,911 209,963 273,989 346,989 419,989 480,963 531,910 582,859 608,796 608,723 608,648 583,586 532,535 482,483 420,457 346,457 Z"
   id="path10" />
  </g>
  <g
   id="bullet-char-template-8211"
   transform="scale(0.00048828125,-0.00048828125)">
   <path
   d="M -4,459 L 1135,459 1135,606 -4,606 -4,459 Z"
   id="path11" />
  </g>
  <g
   id="bullet-char-template-61548"
   transform="scale(0.00048828125,-0.00048828125)">
   <path
   d="M 173,740 C 173,903 231,1043 346,1159 462,1274 601,1332 765,1332 928,1332 1067,1274 1183,1159 1299,1043 1357,903 1357,740 1357,577 1299,437 1183,322 1067,206 928,148 765,148 601,148 462,206 346,322 231,437 173,577 173,740 Z"
   id="path12" />
  </g>
 </defs>
 <g
   id="g12">
  <g
   id="id2"
   class="Master_Slide">
   <g
   id="bg-id2"
   class="Background" />
   <g
   id="bo-id2"
   class="BackgroundObjects" />
  </g>
 </g>
 <g
   class="SlideGroup"
   id="g51">
  <g
   id="g50">
   <g
   id="container-id1">
    <g
   id="id1"
   class="Slide"
   clip-path="url(#presentation_clip_path)">
     <g
   class="Page"
   id="g49">
      <g
   class="Group"
   id="g48">
       <g
   class="Graphic"
   id="g39">
        <g
   id="id3">
         <rect
   class="BoundingBox"
   stroke="none"
   fill="none"
   x="-293"
   y="-522"
   width="14129"
   height="14129"
   id="rect12" />
         <defs
   id="defs13">
          <clipPath
   id="clip_path_1"
   clipPathUnits="userSpaceOnUse">
           <path
   d="M 13306,6542 C 13306,7689 13004,8816 12431,9810 11857,10803 11032,11628 10039,12202 9045,12775 7918,13077 6771,13077 5624,13077 4497,12775 3503,12202 2510,11628 1685,10803 1111,9810 538,8816 236,7689 236,6542 236,5395 538,4268 1111,3274 1685,2281 2510,1456 3503,882 4497,309 5624,7 6771,7 7918,7 9045,309 10039,882 11032,1456 11857,2281 12431,3274 13004,4268 13306,5395 13306,6542 L 13306,6542 Z"
   id="path13" />
          </clipPath>
         </defs>
         <g
   clip-path="url(#clip_path_1)"
   id="g14">
          <path
   fill="rgb(94,151,246)"
   stroke="none"
   d="M 236,13077 L 6457,13077 9344,10190 9344,8027 4198,8027 236,1231 236,13077 Z"
   id="path14" />
         </g>
         <defs
   id="defs15">
          <clipPath
   id="clip_path_2"
   clipPathUnits="userSpaceOnUse">
           <path
   d="M 3503,12202 C 2510,11628 1685,10803 1111,9810 538,8816 236,7689 236,6542 236,5395 538,4268 1111,3274 1163,3185 1217,3096 1273,3009 L 4198,8027 9344,8027 9344,10190 6464,13070 C 5424,13021 4408,12724 3503,12202 Z"
   id="path15" />
          </clipPath>
         </defs>
         
         <g
   clip-path="url(#clip_path_1)"
   id="g16">
          <path
   fill="rgb(51,103,214)"
   stroke="none"
   d="M 1273,7 L 1273,8027 4199,8027 6771,3571 13306,3571 13306,7 1273,7 Z"
   id="path16" />
         </g>
         <defs
   id="defs17">
          <clipPath
   id="clip_path_3"
   clipPathUnits="userSpaceOnUse">
           <path
   d="M 3503,882 C 4497,309 5624,7 6771,7 7918,7 9045,309 10039,882 11032,1456 11857,2281 12431,3274 12487,3372 12541,3471 12592,3571 L 6771,3571 4199,8027 1273,8027 1273,3009 C 1836,2134 2600,1404 3503,882 Z"
   id="path17" />
          </clipPath>
         </defs>
         
         <g
   clip-path="url(#clip_path_1)"
   id="g19">
          <path
   fill="rgb(26,35,126)"
   fill-opacity="0.149"
   stroke="none"
   d="M 4268,8001 L 1310,2929 1267,3003 4204,8038 4268,8001 Z"
   id="path18" />
          <path
   fill="rgb(94,151,246)"
   stroke="none"
   d="M 236,13077 L 6457,13077 9344,10190 9344,8027 4198,8027 236,1231 236,13077 Z"
   id="path19" />
         </g>
         <defs
   id="defs20">
          <clipPath
   id="clip_path_4"
   clipPathUnits="userSpaceOnUse">
           <path
   d="M 3503,12202 C 2510,11628 1685,10803 1111,9810 538,8816 236,7689 236,6542 236,5395 538,4268 1111,3274 1163,3185 1217,3096 1273,3009 L 4198,8027 9344,8027 9344,10190 6464,13070 C 5424,13021 4408,12724 3503,12202 Z"
   id="path20" />
          </clipPath>
         </defs>
         
         <g
   clip-path="url(#clip_path_1)"
   id="g21">
          <path
   fill="rgb(26,35,126)"
   fill-opacity="0.149"
   stroke="none"
   d="M 9284,8126 L 9222,8090 6371,13077 6457,13077 9286,8128 9284,8126 Z"
   id="path21" />
         </g>
         <defs
   id="defs22">
          <clipPath
   id="clip_path_5"
   clipPathUnits="userSpaceOnUse">
           <path
   d="M 3503,12202 C 2510,11628 1685,10803 1111,9810 538,8816 236,7689 236,6542 236,5395 538,4268 1111,3274 1163,3185 1217,3096 1273,3009 L 4198,8027 9344,8027 9344,10190 6464,13070 C 5424,13021 4408,12724 3503,12202 Z"
   id="path22" />
          </clipPath>
         </defs>
         <g
   clip-path="url(#clip_path_5)"
   id="g23">
          <path
   fill="rgb(161,194,250)"
   stroke="none"
   d="M 6771,3571 L 9344,8027 6457,13077 13306,13077 13306,3571 6771,3571 Z"
   id="path23" />
         </g>
         <defs
   id="defs24">
          <clipPath
   id="clip_path_6"
   clipPathUnits="userSpaceOnUse">
           <path
   d="M 9344,10190 L 6464,13070 C 6463,13070 6462,13070 6461,13070 L 9344,8027 9344,10190 Z"
   id="path24" />
          </clipPath>
         </defs>
         
         <g
   clip-path="url(#clip_path_5)"
   id="g25" />
         <g
   clip-path="url(#clip_path_1)"
   id="g26">
          <path
   fill="rgb(161,194,250)"
   stroke="none"
   d="M 6771,3571 L 9344,8027 6457,13077 13306,13077 13306,3571 6771,3571 Z"
   id="path25" />
         </g>
         <defs
   id="defs26">
          <clipPath
   id="clip_path_7"
   clipPathUnits="userSpaceOnUse">
           <path
   d="M 12431,9810 C 11857,10803 11032,11628 10039,12202 9045,12775 7918,13077 6771,13077 6668,13077 6564,13075 6461,13070 L 9344,8027 6771,3571 12592,3571 C 13061,4490 13306,5508 13306,6542 13306,7689 13004,8816 12431,9810 Z"
   id="path26" />
          </clipPath>
         </defs>
         
         <g
   clip-path="url(#clip_path_1)"
   id="g28" />
         <defs
   id="defs28">
          <clipPath
   id="clip_path_8"
   clipPathUnits="userSpaceOnUse">
           <path
   d="M 12431,9810 C 11857,10803 11032,11628 10039,12202 9045,12775 7918,13077 6771,13077 6668,13077 6564,13075 6461,13070 L 9344,8027 6771,3571 12592,3571 C 13061,4490 13306,5508 13306,6542 13306,7689 13004,8816 12431,9810 Z"
   id="path28" />
          </clipPath>
         </defs>
         <g
   clip-path="url(#clip_path_8)"
   id="g29">
          <path
   fill="rgb(51,103,214)"
   stroke="none"
   d="M 1273,7 L 1273,8027 4199,8027 6771,3571 13306,3571 13306,7 1273,7 Z"
   id="path29" />
         </g>
         <g
   clip-path="url(#clip_path_1)"
   id="g30" />
         <defs
   id="defs30">
          <clipPath
   id="clip_path_9"
   clipPathUnits="userSpaceOnUse">
           <path
   d="M 12592,3572 L 6771,5127 6771,3571 12592,3571 C 12592,3571 12592,3572 12592,3572 Z"
   id="path30" />
          </clipPath>
         </defs>
         
         <g
   clip-path="url(#clip_path_1)"
   id="g37">
          <path
   fill="rgb(245,245,245)"
   stroke="none"
   d="M 9742,6542 C 9742,7063 9604,7576 9344,8027 9083,8479 8708,8854 8256,9115 7805,9375 7292,9513 6771,9513 6250,9513 5737,9375 5286,9115 4834,8854 4459,8479 4198,8027 3938,7576 3800,7063 3800,6542 3800,6021 3938,5508 4198,5057 4459,4605 4834,4230 5286,3969 5737,3709 6250,3571 6771,3571 7292,3571 7805,3709 8256,3969 8708,4230 9083,4605 9344,5057 9604,5508 9742,6021 9742,6542 L 9742,6542 Z"
   id="path31" />
          <path
   fill="rgb(66,133,244)"
   stroke="none"
   d="M 9147,6542 C 9147,6959 9038,7369 8829,7730 8621,8092 8321,8392 7959,8600 7598,8809 7188,8918 6771,8918 6354,8918 5944,8809 5583,8600 5221,8392 4921,8092 4713,7730 4504,7369 4395,6959 4395,6542 4395,6125 4504,5715 4713,5354 4921,4992 5221,4692 5583,4484 5944,4275 6354,4166 6771,4166 7188,4166 7598,4275 7959,4484 8321,4692 8621,4992 8829,5354 9038,5715 9147,6125 9147,6542 L 9147,6542 Z"
   id="path32" />
          <path
   fill="rgb(26,35,126)"
   fill-opacity="0.2"
   stroke="none"
   d="M 6771,3497 C 6250,3497 5737,3634 5286,3895 4834,4156 4459,4531 4198,4982 3938,5434 3800,5946 3800,6468 L 3800,6542 C 3800,6021 3938,5508 4198,5057 4459,4605 4834,4230 5286,3969 5737,3709 6250,3571 6771,3571 L 13306,3571 13306,3497 6771,3497 Z"
   id="path33" />
          <path
   fill="rgb(255,255,255)"
   fill-opacity="0.102"
   stroke="none"
   d="M 9341,8027 C 9340,8028 9340,8028 9340,8029 9079,8480 8705,8855 8253,9115 7803,9375 7291,9512 6771,9513 6250,9512 5739,9375 5288,9115 4837,8854 4462,8480 4201,8028 4201,8028 4201,8028 4201,8027 L 4198,8027 236,1231 236,1305 4198,8102 4201,8102 C 4202,8102 4202,8103 4203,8104 4463,8555 4837,8929 5288,9189 5739,9450 6251,9587 6771,9587 7292,9587 7804,9450 8254,9189 8705,8929 9080,8555 9340,8104 9341,8103 9341,8102 9341,8102 L 9345,8102 9345,8027 9341,8027 Z"
   id="path34" />
          <path
   fill="rgb(26,35,126)"
   fill-opacity="0.102"
   stroke="none"
   d="M 6808,3574 C 7307,3585 7794,3721 8226,3971 8678,4231 9052,4606 9313,5057 9574,5509 9711,6021 9711,6542 9711,7063 9574,7575 9313,8027 9052,8478 8678,8853 8226,9113 7794,9363 7307,9499 6808,9510 6821,9510 6833,9513 6845,9513 7367,9513 7879,9375 8331,9115 8782,8854 9157,8479 9418,8027 9679,7576 9816,7063 9816,6542 9816,6021 9679,5508 9418,5057 9157,4605 8782,4230 8331,3969 7879,3709 7367,3571 6845,3571 6833,3571 6821,3573 6808,3574 Z"
   id="path35" />
          <path
   fill="rgb(255,255,255)"
   fill-opacity="0.2"
   stroke="none"
   d="M 9370,8126 C 9372,8123 9373,8121 9375,8118 9634,7670 9770,7161 9770,6643 9770,6339 9723,6036 9630,5746 9703,6006 9741,6275 9741,6546 9741,7063 9604,7572 9345,8020 9345,8022 9344,8024 9343,8025 L 9344,8028 6458,13078 6544,13078 9373,8129 9370,8126 Z M 10038,957 C 11032,1530 11857,2355 12430,3349 12997,4331 13299,5445 13306,6579 L 13306,6542 C 13306,5395 13004,4268 12431,3274 11857,2281 11032,1456 10039,882 9045,309 7918,7 6771,7 5624,7 4497,309 3503,882 2510,1456 1685,2281 1111,3274 538,4268 236,5395 236,6542 L 236,6579 C 242,5445 544,4331 1111,3349 1685,2355 2510,1530 3503,957 4497,383 5624,81 6771,81 6771,81 6771,81 6771,81 7918,81 9045,383 10038,957 Z"
   id="path36" />
          <path
   fill="rgb(26,35,126)"
   fill-opacity="0.149"
   stroke="none"
   d="M 10038,12127 C 11032,11554 11857,10729 12430,9735 12997,8753 13299,7639 13306,6505 L 13306,6542 C 13306,7689 13004,8816 12431,9810 11857,10803 11032,11628 10039,12202 9045,12775 7918,13077 6771,13077 5624,13077 4497,12775 3503,12202 2510,11628 1685,10803 1111,9810 538,8816 236,7689 236,6542 L 236,6505 C 243,7639 545,8753 1112,9735 1685,10729 2510,11554 3504,12127 4497,12701 5624,13003 6771,13003 7918,13003 9045,12701 10038,12127 Z"
   id="path37" />
         </g>
         <defs
   id="defs38">
          <clipPath
   id="clip_path_10"
   clipPathUnits="userSpaceOnUse">
           <path
   d="M 13306,6542 C 13306,7689 13004,8816 12431,9810 11857,10803 11032,11628 10039,12202 9045,12775 7918,13077 6771,13077 5624,13077 4497,12775 3503,12202 2510,11628 1685,10803 1111,9810 538,8816 236,7689 236,6542 236,5395 538,4268 1111,3274 1685,2281 2510,1456 3503,882 4497,309 5624,7 6771,7 7918,7 9045,309 10039,882 11032,1456 11857,2281 12431,3274 13004,4268 13306,5395 13306,6542 L 13306,6542 Z"
   id="path38" />
          </clipPath>
         </defs>
         
        </g>
       </g>
       <g
   class="Graphic"
   id="g42">
        <g
   id="id4">
         <rect
   class="BoundingBox"
   stroke="none"
   fill="none"
   x="-254"
   y="13907"
   width="7621"
   height="7621"
   id="rect39" />
         <path
   fill="rgb(104,159,56)"
   stroke="none"
   d="M 492,14147 C 229,14147 16,14360 16,14623 L 16,20806 C 16,21069 229,21282 492,21282 L 6675,21282 C 6938,21282 7151,21069 7151,20806 L 7151,14623 C 7151,14360 6938,14147 6675,14147 L 492,14147 Z"
   id="path39" />
         <path
   fill="rgb(124,179,66)"
   stroke="none"
   d="M 462,14147 C 384,14148 308,14169 241,14207 172,14247 116,14304 76,14372 37,14439 16,14515 16,14593 L 16,20414 C 15,20660 215,20859 461,20860 L 6295,20860 C 6541,20860 6740,20661 6741,20415 L 6741,14593 C 6746,14352 6554,14153 6314,14147 L 6301,14147 462,14147 Z"
   id="path40" />
         <path
   fill="rgb(255,255,255)"
   fill-opacity="0.298"
   stroke="none"
   d="M 1496,14516 C 1039,14534 813,14587 676,14754 539,14920 503,15259 498,15663 498,15949 498,16216 646,16216 848,16216 848,15747 1015,15485 1336,14968 2139,14855 2139,14676 2139,14540 2043,14498 1496,14516 Z"
   id="path41" />
         <path
   fill="rgb(251,249,249)"
   stroke="none"
   d="M 2308,20420 C 2216,20420 2125,20396 2045,20350 1965,20303 1898,20237 1852,20157 1833,20123 1817,20088 1806,20051 L 908,17346 C 821,17060 983,16757 1269,16671 1545,16587 1839,16735 1936,17007 L 2519,18761 5319,15217 C 5505,14983 5846,14943 6081,15128 6315,15314 6355,15654 6170,15889 L 2745,20212 C 2702,20267 2649,20313 2589,20348 2508,20394 2416,20419 2323,20420 2318,20420 2313,20420 2308,20420 Z"
   id="path42" />
        </g>
       </g>
       <g
   class="Graphic"
   id="g43">
        <g
   id="id5">
         <rect
   class="BoundingBox"
   stroke="none"
   fill="none"
   x="6971"
   y="10919"
   width="13369"
   height="13369"
   id="rect42" />
         <path
   fill="rgb(104,159,99)"
   stroke="none"
   d="M 13599,24279 C 13420,24279 13242,24232 13086,24141 L 11452,23175 C 11208,23038 11327,22990 11408,22962 11733,22848 11799,22822 12146,22625 12183,22604 12231,22612 12268,22634 L 13523,23378 C 13568,23403 13632,23403 13674,23378 L 18567,20554 C 18612,20529 18641,20476 18641,20422 L 18641,14777 C 18641,14720 18612,14670 18566,14642 L 13675,11820 C 13630,11793 13570,11793 13525,11820 L 8635,14642 C 8588,14669 8558,14722 8558,14775 L 8558,20421 C 8558,20475 8587,20526 8634,20552 L 9973,21326 C 10701,21690 11145,21261 11145,20830 L 11145,15258 C 11145,15178 11208,15117 11287,15117 L 11907,15117 C 11984,15117 12048,15178 12048,15258 L 12048,20832 C 12048,21802 11519,22360 10599,22360 10316,22360 10093,22360 9471,22053 L 8188,21314 C 7871,21130 7675,20787 7675,20421 L 7675,14775 C 7675,14408 7871,14065 8188,13884 L 13085,11059 C 13395,10884 13806,10884 14114,11059 L 19005,13885 C 19321,14068 19518,14409 19518,14777 L 19518,20422 C 19518,20788 19321,21130 19005,21314 L 14114,24139 C 13957,24230 13779,24276 13598,24276 L 13599,24279 13599,24279 Z M 15110,20389 C 12969,20389 12520,19406 12520,18582 12520,18503 12584,18441 12662,18441 L 13294,18441 C 13364,18441 13423,18492 13434,18561 13529,19205 13813,19529 15108,19529 16139,19529 16577,19296 16577,18750 16577,18435 16452,18201 14851,18044 13511,17912 12683,17617 12683,16545 12683,15558 13516,14970 14911,14970 16477,14970 17253,15514 17351,16682 17355,16723 17340,16762 17313,16791 17286,16820 17248,16837 17209,16837 L 16574,16837 C 16507,16837 16450,16790 16436,16727 16283,16049 15914,15833 14908,15833 13783,15833 13652,16224 13652,16518 13652,16875 13806,16979 15324,17180 16828,17379 17542,17661 17542,18718 17542,19783 16653,20394 15103,20394 L 15110,20389 15110,20389 Z"
   id="path43" />
        </g>
       </g>
       <g
   class="Graphic"
   id="g47">
        <g
   id="id6">
         <rect
   class="BoundingBox"
   stroke="none"
   fill="none"
   x="13615"
   y="2569"
   width="7611"
   height="7611"
   id="rect43" />
         <path
   fill="rgb(66,118,135)"
   stroke="none"
   d="M 20508,2811 L 14332,2811 C 14071,2811 13857,3025 13857,3286 L 13857,9462 C 13857,9723 14071,9937 14332,9937 L 20508,9937 C 20769,9937 20983,9723 20983,9462 L 20983,3286 C 20983,3025 20769,2811 20508,2811 L 20508,2811 Z"
   id="path44" />
         <path
   fill="rgb(140,175,191)"
   stroke="none"
   d="M 14303,2811 C 14059,2811 13857,3013 13857,3257 L 13857,9070 C 13857,9319 14059,9515 14303,9515 L 20128,9515 C 20377,9515 20573,9313 20573,9070 L 20573,3257 C 20585,3013 20377,2811 20134,2811 L 14303,2811 Z"
   id="path45" />
         <path
   fill="rgb(180,225,237)"
   fill-opacity="0.502"
   stroke="none"
   d="M 15336,3179 C 14879,3197 14653,3251 14516,3417 14380,3583 14344,3922 14338,4325 14338,4610 14338,4878 14487,4878 14689,4878 14689,4409 14855,4147 15175,3631 15977,3518 15977,3340 15977,3203 15882,3162 15336,3179 Z"
   id="path46" />
         <path
   fill="rgb(251,249,249)"
   stroke="none"
   d="M 15924,8838 C 15919,8838 15914,8838 15909,8838 15817,8838 15726,8814 15646,8768 15566,8722 15500,8655 15453,8575 15434,8542 15419,8507 15407,8470 L 14510,5768 C 14424,5483 14585,5180 14871,5094 15147,5010 15440,5158 15538,5430 L 16120,7182 18916,3643 C 19102,3408 19442,3368 19676,3554 19911,3739 19951,4079 19765,4314 L 16345,8630 C 16303,8685 16250,8731 16189,8766 16109,8813 16017,8838 15924,8838 Z"
   id="path47" />
        </g>
       </g>
      </g>
     </g>
    </g>
   </g>
  </g>
 </g>
</svg>
